<svg id="visual" viewBox="0 0 900 600" width="900" height="600" xmlns="http://www.w3.org/2000/svg" xmlns:xlink="http://www.w3.org/1999/xlink" version="1.1"><rect x="0" y="0" width="900" height="600" fill="#14062a"></rect><path d="M0 251L16.7 251.7C33.3 252.3 66.7 253.7 100 255.7C133.3 257.7 166.7 260.3 200 268.3C233.3 276.3 266.7 289.7 300 288.3C333.3 287 366.7 271 400 268.3C433.3 265.7 466.7 276.3 500 289C533.3 301.7 566.7 316.3 600 325.7C633.3 335 666.7 339 700 342.8C733.3 346.7 766.7 350.3 800 350.5C833.3 350.7 866.7 347.3 883.3 345.7L900 344L900 601L883.3 601C866.7 601 833.3 601 800 601C766.7 601 733.3 601 700 601C666.7 601 633.3 601 600 601C566.7 601 533.3 601 500 601C466.7 601 433.3 601 400 601C366.7 601 333.3 601 300 601C266.7 601 233.3 601 200 601C166.7 601 133.3 601 100 601C66.7 601 33.3 601 16.7 601L0 601Z" fill="#a2581b"></path><path d="M0 407L16.7 405.2C33.3 403.3 66.7 399.7 100 401.5C133.3 403.3 166.7 410.7 200 410C233.3 409.3 266.7 400.7 300 396.5C333.3 392.3 366.7 392.7 400 385C433.3 377.3 466.7 361.7 500 355.7C533.3 349.7 566.7 353.3 600 351.8C633.3 350.3 666.7 343.7 700 350C733.3 356.3 766.7 375.7 800 379.3C833.3 383 866.7 371 883.3 365L900 359L900 601L883.3 601C866.7 601 833.3 601 800 601C766.7 601 733.3 601 700 601C666.7 601 633.3 601 600 601C566.7 601 533.3 601 500 601C466.7 601 433.3 601 400 601C366.7 601 333.3 601 300 601C266.7 601 233.3 601 200 601C166.7 601 133.3 601 100 601C66.7 601 33.3 601 16.7 601L0 601Z" fill="#6d5600"></path><path d="M0 417L16.7 420.8C33.3 424.7 66.7 432.3 100 441.3C133.3 450.3 166.7 460.7 200 466.5C233.3 472.3 266.7 473.7 300 464.7C333.3 455.7 366.7 436.3 400 433.5C433.3 430.7 466.7 444.3 500 454.5C533.3 464.7 566.7 471.3 600 473.5C633.3 475.7 666.7 473.3 700 464.3C733.3 455.3 766.7 439.7 800 429.7C833.3 419.7 866.7 415.3 883.3 413.2L900 411L900 601L883.3 601C866.7 601 833.3 601 800 601C766.7 601 733.3 601 700 601C666.7 601 633.3 601 600 601C566.7 601 533.3 601 500 601C466.7 601 433.3 601 400 601C366.7 601 333.3 601 300 601C266.7 601 233.3 601 200 601C166.7 601 133.3 601 100 601C66.7 601 33.3 601 16.7 601L0 601Z" fill="#3c4c03"></path><path d="M0 526L16.7 521C33.3 516 66.7 506 100 500.5C133.3 495 166.7 494 200 494.2C233.3 494.3 266.7 495.7 300 501.2C333.3 506.7 366.7 516.3 400 525.5C433.3 534.7 466.7 543.3 500 544.5C533.3 545.7 566.7 539.3 600 530.3C633.3 521.3 666.7 509.7 700 505C733.3 500.3 766.7 502.7 800 500.7C833.3 498.7 866.7 492.3 883.3 489.2L900 486L900 601L883.3 601C866.7 601 833.3 601 800 601C766.7 601 733.3 601 700 601C666.7 601 633.3 601 600 601C566.7 601 533.3 601 500 601C466.7 601 433.3 601 400 601C366.7 601 333.3 601 300 601C266.7 601 233.3 601 200 601C166.7 601 133.3 601 100 601C66.7 601 33.3 601 16.7 601L0 601Z" fill="#063e10"></path></svg>